<svg xmlns="http://www.w3.org/2000/svg" width="341.333" height="341.333" viewBox="0 0 256 256" xmlns:v="https://vecta.io/nano"><style><![CDATA[.B{fill-rule:evenodd}]]></style><g fill="#088d56" class="B"><path d="M18.286 96.68h219.145v104.818H18.286z"/><path d="M18.32 111.971h14.804v104.818H18.32zm204.316-.012h14.804v104.818h-14.804z"/></g><g fill="#1c1d1f" class="B"><path d="M33.09 186.89h189.488v14.646H33.09zm0-90.21h189.488v14.688H33.09z"/><path d="M33.09 96.68h14.82v104.729H33.09zm174.694-.004h14.82v104.729h-14.82zM113 96.79h14.82v104.729H113zm-43.388 67.286h21.685v7.047H69.612z"/><path d="M33.041 140.159h94.744v14.671H33.041zm36.539-20.615h21.685v7.047H69.58zm123.887 22.245h6.876v14.671h-6.876z"/></g><path fill="#0e5a34" d="M4.5 82h246.651v14.68H4.5z" class="B"/></svg>